<mxfile host="app.diagrams.net" modified="2021-11-25T10:55:24.401Z" agent="5.0 (Windows NT 10.0; Win64; x64) AppleWebKit/537.36 (KHTML, like Gecko) Chrome/96.0.4664.45 Safari/537.36" etag="o7Wf7v7hEM62x6lYWQ6V" version="15.8.6" type="github">
  <diagram name="Page-1" id="0783ab3e-0a74-02c8-0abd-f7b4e66b4bec">
    <mxGraphModel dx="767" dy="1175" grid="1" gridSize="10" guides="1" tooltips="1" connect="1" arrows="1" fold="1" page="1" pageScale="1" pageWidth="850" pageHeight="1100" background="none" math="0" shadow="0">
      <root>
        <mxCell id="0" />
        <mxCell id="1" parent="0" />
        <mxCell id="IulTRwujaKqUeMv-euTl-5" style="edgeStyle=orthogonalEdgeStyle;rounded=0;orthogonalLoop=1;jettySize=auto;html=1;exitX=0.5;exitY=1;exitDx=0;exitDy=0;entryX=0.5;entryY=0;entryDx=0;entryDy=0;" edge="1" parent="1" source="IulTRwujaKqUeMv-euTl-1" target="IulTRwujaKqUeMv-euTl-2">
          <mxGeometry relative="1" as="geometry" />
        </mxCell>
        <mxCell id="IulTRwujaKqUeMv-euTl-1" value="" style="ellipse;fillColor=#000000;strokeColor=none;" vertex="1" parent="1">
          <mxGeometry x="410" y="30" width="30" height="30" as="geometry" />
        </mxCell>
        <mxCell id="IulTRwujaKqUeMv-euTl-6" style="edgeStyle=orthogonalEdgeStyle;rounded=0;orthogonalLoop=1;jettySize=auto;html=1;exitX=0.5;exitY=1;exitDx=0;exitDy=0;entryX=0.5;entryY=0;entryDx=0;entryDy=0;" edge="1" parent="1" source="IulTRwujaKqUeMv-euTl-2" target="IulTRwujaKqUeMv-euTl-3">
          <mxGeometry relative="1" as="geometry" />
        </mxCell>
        <mxCell id="IulTRwujaKqUeMv-euTl-2" value="Авторизація клієнта" style="rounded=1;whiteSpace=wrap;html=1;" vertex="1" parent="1">
          <mxGeometry x="325" y="80" width="200" height="60" as="geometry" />
        </mxCell>
        <mxCell id="IulTRwujaKqUeMv-euTl-12" style="edgeStyle=orthogonalEdgeStyle;rounded=0;orthogonalLoop=1;jettySize=auto;html=1;exitX=0.25;exitY=1;exitDx=0;exitDy=0;entryX=0.5;entryY=0;entryDx=0;entryDy=0;" edge="1" parent="1" source="IulTRwujaKqUeMv-euTl-3" target="IulTRwujaKqUeMv-euTl-11">
          <mxGeometry relative="1" as="geometry" />
        </mxCell>
        <mxCell id="IulTRwujaKqUeMv-euTl-13" style="edgeStyle=orthogonalEdgeStyle;rounded=0;orthogonalLoop=1;jettySize=auto;html=1;exitX=0.75;exitY=1;exitDx=0;exitDy=0;" edge="1" parent="1" source="IulTRwujaKqUeMv-euTl-3" target="IulTRwujaKqUeMv-euTl-10">
          <mxGeometry relative="1" as="geometry" />
        </mxCell>
        <mxCell id="IulTRwujaKqUeMv-euTl-3" value="" style="rounded=1;whiteSpace=wrap;html=1;fillColor=#000000;" vertex="1" parent="1">
          <mxGeometry x="202" y="170" width="447" height="20" as="geometry" />
        </mxCell>
        <mxCell id="IulTRwujaKqUeMv-euTl-15" style="edgeStyle=orthogonalEdgeStyle;rounded=0;orthogonalLoop=1;jettySize=auto;html=1;exitX=0.5;exitY=1;exitDx=0;exitDy=0;entryX=0.5;entryY=0;entryDx=0;entryDy=0;" edge="1" parent="1" source="IulTRwujaKqUeMv-euTl-10" target="IulTRwujaKqUeMv-euTl-14">
          <mxGeometry relative="1" as="geometry" />
        </mxCell>
        <mxCell id="IulTRwujaKqUeMv-euTl-10" value="Перехід до керування профілем" style="rounded=1;whiteSpace=wrap;html=1;fillColor=#FFFFFF;" vertex="1" parent="1">
          <mxGeometry x="519" y="230" width="130" height="60" as="geometry" />
        </mxCell>
        <mxCell id="IulTRwujaKqUeMv-euTl-43" style="edgeStyle=orthogonalEdgeStyle;rounded=0;orthogonalLoop=1;jettySize=auto;html=1;exitX=0.5;exitY=1;exitDx=0;exitDy=0;entryX=0.5;entryY=0;entryDx=0;entryDy=0;" edge="1" parent="1" source="IulTRwujaKqUeMv-euTl-11" target="IulTRwujaKqUeMv-euTl-42">
          <mxGeometry relative="1" as="geometry" />
        </mxCell>
        <mxCell id="IulTRwujaKqUeMv-euTl-11" value="Прехід до&lt;br&gt;пропозицій" style="rounded=1;whiteSpace=wrap;html=1;fillColor=#FFFFFF;" vertex="1" parent="1">
          <mxGeometry x="150" y="240" width="130" height="60" as="geometry" />
        </mxCell>
        <mxCell id="IulTRwujaKqUeMv-euTl-19" style="edgeStyle=orthogonalEdgeStyle;rounded=0;orthogonalLoop=1;jettySize=auto;html=1;exitX=0.5;exitY=1;exitDx=0;exitDy=0;" edge="1" parent="1" source="IulTRwujaKqUeMv-euTl-14" target="IulTRwujaKqUeMv-euTl-16">
          <mxGeometry relative="1" as="geometry" />
        </mxCell>
        <mxCell id="IulTRwujaKqUeMv-euTl-27" style="edgeStyle=orthogonalEdgeStyle;rounded=0;orthogonalLoop=1;jettySize=auto;html=1;exitX=0;exitY=0.5;exitDx=0;exitDy=0;entryX=1;entryY=0.5;entryDx=0;entryDy=0;" edge="1" parent="1" source="IulTRwujaKqUeMv-euTl-14" target="IulTRwujaKqUeMv-euTl-23">
          <mxGeometry relative="1" as="geometry" />
        </mxCell>
        <mxCell id="IulTRwujaKqUeMv-euTl-14" value="Зміна пароля" style="rhombus;whiteSpace=wrap;html=1;fillColor=#FFFFFF;" vertex="1" parent="1">
          <mxGeometry x="530" y="320" width="106" height="80" as="geometry" />
        </mxCell>
        <mxCell id="IulTRwujaKqUeMv-euTl-21" style="edgeStyle=orthogonalEdgeStyle;rounded=0;orthogonalLoop=1;jettySize=auto;html=1;exitX=0.5;exitY=1;exitDx=0;exitDy=0;entryX=0.5;entryY=0;entryDx=0;entryDy=0;" edge="1" parent="1" source="IulTRwujaKqUeMv-euTl-16" target="IulTRwujaKqUeMv-euTl-17">
          <mxGeometry relative="1" as="geometry">
            <Array as="points">
              <mxPoint x="583" y="540" />
              <mxPoint x="583" y="540" />
            </Array>
          </mxGeometry>
        </mxCell>
        <mxCell id="IulTRwujaKqUeMv-euTl-28" style="edgeStyle=orthogonalEdgeStyle;rounded=0;orthogonalLoop=1;jettySize=auto;html=1;exitX=0;exitY=0.5;exitDx=0;exitDy=0;" edge="1" parent="1" source="IulTRwujaKqUeMv-euTl-16" target="IulTRwujaKqUeMv-euTl-24">
          <mxGeometry relative="1" as="geometry" />
        </mxCell>
        <mxCell id="IulTRwujaKqUeMv-euTl-16" value="Зміна імені" style="rhombus;whiteSpace=wrap;html=1;fillColor=#FFFFFF;" vertex="1" parent="1">
          <mxGeometry x="530" y="440" width="106" height="80" as="geometry" />
        </mxCell>
        <mxCell id="IulTRwujaKqUeMv-euTl-22" style="edgeStyle=orthogonalEdgeStyle;rounded=0;orthogonalLoop=1;jettySize=auto;html=1;exitX=0.5;exitY=1;exitDx=0;exitDy=0;entryX=0.5;entryY=0;entryDx=0;entryDy=0;" edge="1" parent="1" source="IulTRwujaKqUeMv-euTl-17" target="IulTRwujaKqUeMv-euTl-18">
          <mxGeometry relative="1" as="geometry" />
        </mxCell>
        <mxCell id="IulTRwujaKqUeMv-euTl-35" value="Ні" style="edgeLabel;html=1;align=center;verticalAlign=middle;resizable=0;points=[];" vertex="1" connectable="0" parent="IulTRwujaKqUeMv-euTl-22">
          <mxGeometry x="-0.1833" y="-2" relative="1" as="geometry">
            <mxPoint as="offset" />
          </mxGeometry>
        </mxCell>
        <mxCell id="IulTRwujaKqUeMv-euTl-29" style="edgeStyle=orthogonalEdgeStyle;rounded=0;orthogonalLoop=1;jettySize=auto;html=1;exitX=0;exitY=0.5;exitDx=0;exitDy=0;entryX=1;entryY=0.5;entryDx=0;entryDy=0;" edge="1" parent="1" source="IulTRwujaKqUeMv-euTl-17" target="IulTRwujaKqUeMv-euTl-25">
          <mxGeometry relative="1" as="geometry" />
        </mxCell>
        <mxCell id="IulTRwujaKqUeMv-euTl-17" value="Зміна телефону" style="rhombus;whiteSpace=wrap;html=1;fillColor=#FFFFFF;" vertex="1" parent="1">
          <mxGeometry x="530" y="560" width="106" height="80" as="geometry" />
        </mxCell>
        <mxCell id="IulTRwujaKqUeMv-euTl-30" style="edgeStyle=orthogonalEdgeStyle;rounded=0;orthogonalLoop=1;jettySize=auto;html=1;exitX=0;exitY=0.5;exitDx=0;exitDy=0;entryX=1;entryY=0.5;entryDx=0;entryDy=0;" edge="1" parent="1" source="IulTRwujaKqUeMv-euTl-18" target="IulTRwujaKqUeMv-euTl-26">
          <mxGeometry relative="1" as="geometry" />
        </mxCell>
        <mxCell id="IulTRwujaKqUeMv-euTl-38" style="edgeStyle=orthogonalEdgeStyle;rounded=0;orthogonalLoop=1;jettySize=auto;html=1;exitX=0.5;exitY=1;exitDx=0;exitDy=0;entryX=1;entryY=0.5;entryDx=0;entryDy=0;" edge="1" parent="1" source="IulTRwujaKqUeMv-euTl-18" target="IulTRwujaKqUeMv-euTl-3">
          <mxGeometry relative="1" as="geometry">
            <mxPoint x="582.8333333333334" y="820" as="targetPoint" />
            <Array as="points">
              <mxPoint x="583" y="810" />
              <mxPoint x="669" y="810" />
              <mxPoint x="669" y="180" />
            </Array>
          </mxGeometry>
        </mxCell>
        <mxCell id="IulTRwujaKqUeMv-euTl-18" value="Зміна email" style="rhombus;whiteSpace=wrap;html=1;fillColor=#FFFFFF;" vertex="1" parent="1">
          <mxGeometry x="530" y="680" width="106" height="80" as="geometry" />
        </mxCell>
        <mxCell id="IulTRwujaKqUeMv-euTl-23" value="Заміна пароля" style="rounded=1;whiteSpace=wrap;html=1;fillColor=#FFFFFF;" vertex="1" parent="1">
          <mxGeometry x="370" y="330" width="130" height="60" as="geometry" />
        </mxCell>
        <mxCell id="IulTRwujaKqUeMv-euTl-24" value="Заміна імені" style="rounded=1;whiteSpace=wrap;html=1;fillColor=#FFFFFF;" vertex="1" parent="1">
          <mxGeometry x="370" y="450" width="130" height="60" as="geometry" />
        </mxCell>
        <mxCell id="IulTRwujaKqUeMv-euTl-25" value="Заміна телефону" style="rounded=1;whiteSpace=wrap;html=1;fillColor=#FFFFFF;" vertex="1" parent="1">
          <mxGeometry x="370" y="570" width="130" height="60" as="geometry" />
        </mxCell>
        <mxCell id="IulTRwujaKqUeMv-euTl-26" value="Заміна email" style="rounded=1;whiteSpace=wrap;html=1;fillColor=#FFFFFF;" vertex="1" parent="1">
          <mxGeometry x="370" y="690" width="130" height="60" as="geometry" />
        </mxCell>
        <mxCell id="IulTRwujaKqUeMv-euTl-31" value="Так" style="text;html=1;strokeColor=none;fillColor=none;align=center;verticalAlign=middle;whiteSpace=wrap;rounded=0;" vertex="1" parent="1">
          <mxGeometry x="490" y="340" width="60" height="30" as="geometry" />
        </mxCell>
        <mxCell id="IulTRwujaKqUeMv-euTl-32" value="Так" style="text;html=1;strokeColor=none;fillColor=none;align=center;verticalAlign=middle;whiteSpace=wrap;rounded=0;" vertex="1" parent="1">
          <mxGeometry x="490" y="460" width="60" height="30" as="geometry" />
        </mxCell>
        <mxCell id="IulTRwujaKqUeMv-euTl-33" value="Так" style="text;html=1;strokeColor=none;fillColor=none;align=center;verticalAlign=middle;whiteSpace=wrap;rounded=0;" vertex="1" parent="1">
          <mxGeometry x="490" y="580" width="60" height="30" as="geometry" />
        </mxCell>
        <mxCell id="IulTRwujaKqUeMv-euTl-34" value="Так" style="text;html=1;strokeColor=none;fillColor=none;align=center;verticalAlign=middle;whiteSpace=wrap;rounded=0;" vertex="1" parent="1">
          <mxGeometry x="490" y="700" width="60" height="30" as="geometry" />
        </mxCell>
        <mxCell id="IulTRwujaKqUeMv-euTl-36" value="Ні" style="edgeLabel;html=1;align=center;verticalAlign=middle;resizable=0;points=[];" vertex="1" connectable="0" parent="1">
          <mxGeometry x="583" y="540.0033333333333" as="geometry" />
        </mxCell>
        <mxCell id="IulTRwujaKqUeMv-euTl-37" value="Ні" style="edgeLabel;html=1;align=center;verticalAlign=middle;resizable=0;points=[];" vertex="1" connectable="0" parent="1">
          <mxGeometry x="594" y="673.3333333333334" as="geometry">
            <mxPoint x="-12" y="-254" as="offset" />
          </mxGeometry>
        </mxCell>
        <mxCell id="IulTRwujaKqUeMv-euTl-39" value="&lt;span style=&quot;color: rgb(0, 0, 0); font-family: helvetica; font-size: 11px; font-style: normal; font-weight: 400; letter-spacing: normal; text-align: center; text-indent: 0px; text-transform: none; word-spacing: 0px; background-color: rgb(255, 255, 255); display: inline; float: none;&quot;&gt;Ні&lt;/span&gt;" style="text;whiteSpace=wrap;html=1;" vertex="1" parent="1">
          <mxGeometry x="661" y="504" width="20" height="30" as="geometry" />
        </mxCell>
        <mxCell id="IulTRwujaKqUeMv-euTl-45" style="edgeStyle=orthogonalEdgeStyle;rounded=0;orthogonalLoop=1;jettySize=auto;html=1;exitX=0.5;exitY=1;exitDx=0;exitDy=0;" edge="1" parent="1" source="IulTRwujaKqUeMv-euTl-42" target="IulTRwujaKqUeMv-euTl-44">
          <mxGeometry relative="1" as="geometry" />
        </mxCell>
        <mxCell id="IulTRwujaKqUeMv-euTl-42" value="" style="rounded=1;whiteSpace=wrap;html=1;fillColor=#000000;" vertex="1" parent="1">
          <mxGeometry x="105" y="340" width="220" height="20" as="geometry" />
        </mxCell>
        <mxCell id="IulTRwujaKqUeMv-euTl-47" style="edgeStyle=orthogonalEdgeStyle;rounded=0;orthogonalLoop=1;jettySize=auto;html=1;exitX=0.5;exitY=1;exitDx=0;exitDy=0;entryX=0.5;entryY=0;entryDx=0;entryDy=0;" edge="1" parent="1" source="IulTRwujaKqUeMv-euTl-44" target="IulTRwujaKqUeMv-euTl-46">
          <mxGeometry relative="1" as="geometry" />
        </mxCell>
        <mxCell id="IulTRwujaKqUeMv-euTl-44" value="Обрання хостелу зі списку доступних" style="rounded=1;whiteSpace=wrap;html=1;fillColor=#FFFFFF;" vertex="1" parent="1">
          <mxGeometry x="230" y="420" width="130" height="60" as="geometry" />
        </mxCell>
        <mxCell id="IulTRwujaKqUeMv-euTl-51" style="edgeStyle=orthogonalEdgeStyle;rounded=0;orthogonalLoop=1;jettySize=auto;html=1;exitX=0.5;exitY=1;exitDx=0;exitDy=0;entryX=0.5;entryY=0;entryDx=0;entryDy=0;" edge="1" parent="1" source="IulTRwujaKqUeMv-euTl-46" target="IulTRwujaKqUeMv-euTl-48">
          <mxGeometry relative="1" as="geometry" />
        </mxCell>
        <mxCell id="IulTRwujaKqUeMv-euTl-46" value="" style="rounded=1;whiteSpace=wrap;html=1;fillColor=#000000;" vertex="1" parent="1">
          <mxGeometry x="105" y="690" width="220" height="20" as="geometry" />
        </mxCell>
        <mxCell id="IulTRwujaKqUeMv-euTl-50" style="edgeStyle=orthogonalEdgeStyle;rounded=0;orthogonalLoop=1;jettySize=auto;html=1;exitX=0;exitY=0.5;exitDx=0;exitDy=0;entryX=0;entryY=0.5;entryDx=0;entryDy=0;" edge="1" parent="1" source="IulTRwujaKqUeMv-euTl-48" target="IulTRwujaKqUeMv-euTl-11">
          <mxGeometry relative="1" as="geometry">
            <Array as="points">
              <mxPoint x="10" y="800" />
              <mxPoint x="10" y="270" />
            </Array>
          </mxGeometry>
        </mxCell>
        <mxCell id="IulTRwujaKqUeMv-euTl-57" style="edgeStyle=orthogonalEdgeStyle;rounded=0;orthogonalLoop=1;jettySize=auto;html=1;exitX=0.5;exitY=1;exitDx=0;exitDy=0;" edge="1" parent="1" source="IulTRwujaKqUeMv-euTl-48" target="IulTRwujaKqUeMv-euTl-49">
          <mxGeometry relative="1" as="geometry" />
        </mxCell>
        <mxCell id="IulTRwujaKqUeMv-euTl-48" value="Перегляд сторінки хостелу" style="rounded=1;whiteSpace=wrap;html=1;fillColor=#FFFFFF;" vertex="1" parent="1">
          <mxGeometry x="150" y="770" width="130" height="60" as="geometry" />
        </mxCell>
        <mxCell id="IulTRwujaKqUeMv-euTl-59" style="edgeStyle=orthogonalEdgeStyle;rounded=0;orthogonalLoop=1;jettySize=auto;html=1;exitX=0.5;exitY=1;exitDx=0;exitDy=0;entryX=0.5;entryY=0;entryDx=0;entryDy=0;" edge="1" parent="1" source="IulTRwujaKqUeMv-euTl-49" target="IulTRwujaKqUeMv-euTl-58">
          <mxGeometry relative="1" as="geometry" />
        </mxCell>
        <mxCell id="IulTRwujaKqUeMv-euTl-49" value="Оформлення замовлення" style="rounded=1;whiteSpace=wrap;html=1;fillColor=#FFFFFF;" vertex="1" parent="1">
          <mxGeometry x="150" y="890" width="130" height="60" as="geometry" />
        </mxCell>
        <mxCell id="IulTRwujaKqUeMv-euTl-54" style="edgeStyle=orthogonalEdgeStyle;rounded=0;orthogonalLoop=1;jettySize=auto;html=1;exitX=0.5;exitY=1;exitDx=0;exitDy=0;entryX=0.5;entryY=0;entryDx=0;entryDy=0;" edge="1" parent="1" source="IulTRwujaKqUeMv-euTl-52" target="IulTRwujaKqUeMv-euTl-53">
          <mxGeometry relative="1" as="geometry" />
        </mxCell>
        <mxCell id="IulTRwujaKqUeMv-euTl-52" value="Обрання хостелу за пошуковим запитом" style="rounded=1;whiteSpace=wrap;html=1;fillColor=#FFFFFF;" vertex="1" parent="1">
          <mxGeometry x="40" y="420" width="130" height="60" as="geometry" />
        </mxCell>
        <mxCell id="IulTRwujaKqUeMv-euTl-55" value="Так" style="edgeStyle=orthogonalEdgeStyle;rounded=0;orthogonalLoop=1;jettySize=auto;html=1;exitX=0.5;exitY=1;exitDx=0;exitDy=0;entryX=0.5;entryY=0;entryDx=0;entryDy=0;" edge="1" parent="1" source="IulTRwujaKqUeMv-euTl-53" target="IulTRwujaKqUeMv-euTl-46">
          <mxGeometry relative="1" as="geometry" />
        </mxCell>
        <mxCell id="IulTRwujaKqUeMv-euTl-56" value="Ні" style="edgeStyle=orthogonalEdgeStyle;rounded=0;orthogonalLoop=1;jettySize=auto;html=1;exitX=1;exitY=0.5;exitDx=0;exitDy=0;entryX=0;entryY=0.5;entryDx=0;entryDy=0;" edge="1" parent="1" source="IulTRwujaKqUeMv-euTl-53" target="IulTRwujaKqUeMv-euTl-44">
          <mxGeometry relative="1" as="geometry">
            <Array as="points">
              <mxPoint x="194" y="550" />
              <mxPoint x="194" y="450" />
            </Array>
          </mxGeometry>
        </mxCell>
        <mxCell id="IulTRwujaKqUeMv-euTl-53" value="Хостел&lt;br&gt;знайдений" style="rhombus;whiteSpace=wrap;html=1;fillColor=#FFFFFF;" vertex="1" parent="1">
          <mxGeometry x="51" y="510" width="106" height="80" as="geometry" />
        </mxCell>
        <mxCell id="IulTRwujaKqUeMv-euTl-58" value="" style="ellipse;html=1;shape=endState;fillColor=#000000;strokeColor=#ff0000;" vertex="1" parent="1">
          <mxGeometry x="200" y="1000" width="30" height="30" as="geometry" />
        </mxCell>
      </root>
    </mxGraphModel>
  </diagram>
</mxfile>
